<?xml version="1.0" encoding="UTF-8"?>
<!--Generator: Apple Native CoreSVG 175.5-->
<!DOCTYPE svg
PUBLIC "-//W3C//DTD SVG 1.1//EN"
       "http://www.w3.org/Graphics/SVG/1.1/DTD/svg11.dtd">
<svg version="1.1" xmlns="http://www.w3.org/2000/svg" xmlns:xlink="http://www.w3.org/1999/xlink" width="47.3047" height="43.3398">
 <g>
  <rect height="43.3398" opacity="0" width="47.3047" x="0" y="0"/>
  <path d="M6.13281 39.668L26.4648 39.668C25.8984 38.6914 25.4688 37.6367 25.1953 36.5234L5.83984 36.5234C4.10156 36.5234 3.14453 35.6055 3.14453 33.7891L3.14453 15.3711C3.14453 13.5742 4.10156 12.6367 5.83984 12.6367L33.0664 12.6367C34.8047 12.6367 35.7812 13.5742 35.7812 15.3711L35.7812 20.918C36.3477 20.8594 36.8555 20.8203 37.3828 20.8203C37.8906 20.8203 38.418 20.8594 38.9258 20.918L38.9258 9.76562C38.9258 5.74219 36.8945 3.71094 32.8125 3.71094L6.13281 3.71094C2.05078 3.71094 0 5.72266 0 9.76562L0 33.6133C0 37.6562 2.05078 39.668 6.13281 39.668ZM15.6445 19.6484L16.7969 19.6484C17.4805 19.6484 17.7148 19.4531 17.7148 18.7695L17.7148 17.6172C17.7148 16.9336 17.4805 16.7188 16.7969 16.7188L15.6445 16.7188C14.9609 16.7188 14.7266 16.9336 14.7266 17.6172L14.7266 18.7695C14.7266 19.4531 14.9609 19.6484 15.6445 19.6484ZM22.1484 19.6484L23.2812 19.6484C23.9648 19.6484 24.1992 19.4531 24.1992 18.7695L24.1992 17.6172C24.1992 16.9336 23.9648 16.7188 23.2812 16.7188L22.1484 16.7188C21.4453 16.7188 21.2305 16.9336 21.2305 17.6172L21.2305 18.7695C21.2305 19.4531 21.4453 19.6484 22.1484 19.6484ZM28.6328 19.6484L29.7852 19.6484C30.4688 19.6484 30.6836 19.4531 30.6836 18.7695L30.6836 17.6172C30.6836 16.9336 30.4688 16.7188 29.7852 16.7188L28.6328 16.7188C27.9492 16.7188 27.7148 16.9336 27.7148 17.6172L27.7148 18.7695C27.7148 19.4531 27.9492 19.6484 28.6328 19.6484ZM9.16016 26.0352L10.3125 26.0352C10.9961 26.0352 11.2109 25.8398 11.2109 25.1562L11.2109 24.0039C11.2109 23.3203 10.9961 23.125 10.3125 23.125L9.16016 23.125C8.47656 23.125 8.24219 23.3203 8.24219 24.0039L8.24219 25.1562C8.24219 25.8398 8.47656 26.0352 9.16016 26.0352ZM15.6445 26.0352L16.7969 26.0352C17.4805 26.0352 17.7148 25.8398 17.7148 25.1562L17.7148 24.0039C17.7148 23.3203 17.4805 23.125 16.7969 23.125L15.6445 23.125C14.9609 23.125 14.7266 23.3203 14.7266 24.0039L14.7266 25.1562C14.7266 25.8398 14.9609 26.0352 15.6445 26.0352ZM22.1484 26.0352L23.2812 26.0352C23.9648 26.0352 24.1992 25.8398 24.1992 25.1562L24.1992 24.0039C24.1992 23.3203 23.9648 23.125 23.2812 23.125L22.1484 23.125C21.4453 23.125 21.2305 23.3203 21.2305 24.0039L21.2305 25.1562C21.2305 25.8398 21.4453 26.0352 22.1484 26.0352ZM9.16016 32.4414L10.3125 32.4414C10.9961 32.4414 11.2109 32.2266 11.2109 31.543L11.2109 30.3906C11.2109 29.707 10.9961 29.5117 10.3125 29.5117L9.16016 29.5117C8.47656 29.5117 8.24219 29.707 8.24219 30.3906L8.24219 31.543C8.24219 32.2266 8.47656 32.4414 9.16016 32.4414ZM15.6445 32.4414L16.7969 32.4414C17.4805 32.4414 17.7148 32.2266 17.7148 31.543L17.7148 30.3906C17.7148 29.707 17.4805 29.5117 16.7969 29.5117L15.6445 29.5117C14.9609 29.5117 14.7266 29.707 14.7266 30.3906L14.7266 31.543C14.7266 32.2266 14.9609 32.4414 15.6445 32.4414ZM22.1484 32.4414L23.2812 32.4414C23.9648 32.4414 24.1992 32.2266 24.1992 31.543L24.1992 30.3906C24.1992 29.707 23.9648 29.5117 23.2812 29.5117L22.1484 29.5117C21.4453 29.5117 21.2305 29.707 21.2305 30.3906L21.2305 31.543C21.2305 32.2266 21.4453 32.4414 22.1484 32.4414ZM37.3828 43.3398C42.7539 43.3398 47.3047 38.8477 47.3047 33.418C47.3047 27.9688 42.8125 23.4961 37.3828 23.4961C31.9336 23.4961 27.4609 27.9883 27.4609 33.418C27.4609 38.8867 31.9336 43.3398 37.3828 43.3398ZM32.7539 34.9414C32.0703 34.9414 31.5234 34.3945 31.5234 33.7305C31.5234 33.0859 32.0898 32.5391 32.7539 32.5391L36.2695 32.5391L36.2695 27.6367C36.2695 26.9922 36.8164 26.4648 37.4805 26.4648C38.1445 26.4648 38.6914 26.9922 38.6914 27.6367L38.6914 33.7305C38.6914 34.4141 38.1641 34.9414 37.4805 34.9414Z" fill="#ffffff"/>
 </g>
</svg>
