<svg fill="#ffffff" height="200px" width="200px" version="1.1" id="Capa_1" xmlns="http://www.w3.org/2000/svg" xmlns:xlink="http://www.w3.org/1999/xlink" viewBox="0 0 465.797 465.797" xml:space="preserve" stroke="#ffffff"><g id="SVGRepo_bgCarrier" stroke-width="0"></g><g id="SVGRepo_tracerCarrier" stroke-linecap="round" stroke-linejoin="round"></g><g id="SVGRepo_iconCarrier"> <path d="M423.532,0H42.264c-11.046,0-20,8.954-20,20v282.563c0,11.046,8.954,20,20,20h125.651l-50.474,115.203 c-4.433,10.117,0.175,21.912,10.293,26.346c2.612,1.143,5.335,1.686,8.016,1.686c7.701,0,15.041-4.474,18.329-11.979l57.507-131.256 h42.625l57.507,131.256c3.289,7.506,10.628,11.979,18.329,11.979c2.68,0,5.404-0.542,8.016-1.686 c10.118-4.434,14.726-16.228,10.293-26.346l-50.474-115.203h125.651c11.046,0,20-8.954,20-20V20C443.532,8.954,434.578,0,423.532,0z M151.724,246.587c0,3.879-3.144,7.023-7.023,7.023h-30.433c-3.879,0-7.023-3.144-7.023-7.023V93.587 c0-3.879,3.145-7.023,7.023-7.023h30.433c3.879,0,7.023,3.144,7.023,7.023V246.587z M220.667,246.587 c0,3.879-3.144,7.023-7.023,7.023H183.21c-3.879,0-7.023-3.144-7.023-7.023V133.011c0-3.879,3.144-7.023,7.023-7.023h30.433 c3.879,0,7.023,3.144,7.023,7.023V246.587z M289.609,246.587c0,3.879-3.144,7.023-7.023,7.023h-30.433 c-3.879,0-7.023-3.144-7.023-7.023v-78.283c0-3.879,3.144-7.023,7.023-7.023h30.433c3.879,0,7.023,3.145,7.023,7.023V246.587z M358.552,246.587c0,3.879-3.144,7.023-7.023,7.023h-30.433c-3.879,0-7.023-3.144-7.023-7.023v-42.729 c0-3.879,3.144-7.023,7.023-7.023h30.433c3.879,0,7.023,3.145,7.023,7.023V246.587z"></path> </g></svg>